<svg id="Слой_2" data-name="Слой 2" xmlns="http://www.w3.org/2000/svg" viewBox="0 0 14.8 13.48"><path d="M7198.32,7200.07l-.74-.4-1.81,3.42a.57.57,0,0,1,.08.13,2,2,0,1,1-2.78-.72,2,2,0,0,1,1.24-.26l1.76-3.36-.76-.4,2.89-1.82Z" transform="translate(-7192.07 -7192.8)" fill="#5fd4ff"/><path d="M7199.15,7202.58v.85l3.87-.07a.61.61,0,0,1,.07-.14,2,2,0,1,1,.72,2.78,2,2,0,0,1-.83-.95l-3.79.08v.86l-3-1.65Z" transform="translate(-7192.07 -7192.8)" fill="#5fd4ff"/><path d="M7201,7200.59l.72-.44-2-3.3h-.15a2,2,0,1,1,2-2,2,2,0,0,1-.4,1.2l2,3.23.73-.45.1,3.41Z" transform="translate(-7192.07 -7192.8)" fill="#5fd4ff"/></svg>