# Blender v3.0.0 OBJ File: ''
# www.blender.org
mtllib test.mtl
o Cube_Cube.001
v -1.000000 -1.000000 1.000000
v -1.000000 1.000000 1.000000
v -1.000000 -1.000000 -1.000000
v -1.000000 1.000000 -1.000000
v 1.000000 -1.000000 1.000000
v 1.000000 1.000000 1.000000
v 1.000000 -1.000000 -1.000000
v 1.000000 1.000000 -1.000000
vt 0.071988 0.750844
vt 0.127231 0.750844
vt 0.127231 0.806086
vt 0.071988 0.806086
vt 0.127231 0.861328
vt 0.071988 0.861328
vt 0.127231 0.916570
vt 0.071988 0.916570
vt 0.127231 0.971812
vt 0.071988 0.971812
vt 0.016746 0.861328
vt 0.016746 0.916570
vt 0.182473 0.861328
vt 0.182473 0.916570
vn -1.0000 0.0000 0.0000
vn 0.0000 0.0000 -1.0000
vn 1.0000 0.0000 0.0000
vn 0.0000 0.0000 1.0000
vn 0.0000 -1.0000 0.0000
vn 0.0000 1.0000 0.0000
usemtl Material
s off
f 1/1/1 2/2/1 4/3/1 3/4/1
f 3/4/2 4/3/2 8/5/2 7/6/2
f 7/6/3 8/5/3 6/7/3 5/8/3
f 5/8/4 6/7/4 2/9/4 1/10/4
f 3/11/5 7/6/5 5/8/5 1/12/5
f 8/5/6 4/13/6 2/14/6 6/7/6
